<svg width="132" height="28" viewBox="0 0 132 28" fill="none" xmlns="http://www.w3.org/2000/svg">
<g clip-path="url(#clip0_3254_1845)">
<path fill-rule="evenodd" clip-rule="evenodd" d="M26.3641 4.82617H27.0585L32.5885 18.9681C32.82 19.5359 33.2573 19.8197 33.9517 19.8197H34.4404V20.5939H28.2931V19.8197H28.7818C29.4248 19.8197 29.8621 19.7423 30.145 19.6133C30.3251 19.51 30.428 19.3552 30.428 19.1746C30.428 19.0455 30.4022 18.9165 30.3508 18.7875L29.0648 15.4842H22.9689L22.2487 17.3681C22.0687 17.8584 21.9658 18.2713 21.9658 18.5552C21.9658 18.8907 22.1201 19.1746 22.4545 19.4326C22.7631 19.6649 23.2261 19.7939 23.8434 19.7939H24.3578V20.5681H18.7764V19.7939C19.3679 19.7939 19.8566 19.6649 20.191 19.4068C20.5254 19.1488 20.8598 18.6584 21.1427 17.91L26.3641 4.82617ZM26.0554 7.79391L23.3033 14.6842H28.7561L26.0554 7.79391ZM18.9307 22.5552H34.3376V23.5359H18.9307V22.5552ZM34.8262 20.5939V19.8197H35.8551C36.4467 19.8197 36.7296 19.51 36.7296 18.9165V12.2584C36.7296 11.8197 36.4724 11.5875 35.9837 11.5875H34.8777V10.8133H40.3563C41.3594 10.8133 42.1053 10.8649 42.6197 10.9939C43.1084 11.1229 43.5457 11.381 43.88 11.7939C44.2144 12.181 44.3945 12.6713 44.3945 13.2391C44.3945 13.9359 44.1115 14.5036 43.5457 14.8907C42.9798 15.3036 42.3625 15.51 41.668 15.5617C43.7514 15.8455 44.806 16.6971 44.806 18.0907C44.806 19.7681 43.4428 20.6197 40.7421 20.6197H34.8262V20.5939ZM38.5043 15.2004H39.9447C41.6423 15.2004 42.4911 14.6068 42.4911 13.4455C42.4911 12.2326 41.7195 11.6133 40.1762 11.6133H39.5589C38.8387 11.6133 38.5043 11.8971 38.5043 12.4907V15.2004ZM38.5043 15.9746V18.9423C38.5043 19.252 38.5558 19.4842 38.7101 19.6391C38.8387 19.7681 39.0702 19.8455 39.4046 19.8455H40.2534C41.3337 19.8455 42.0538 19.6907 42.3625 19.3294C42.6711 18.9939 42.8255 18.5552 42.8255 18.0133C42.8255 16.6455 41.9767 15.9746 40.3048 15.9746H38.5043ZM34.3376 22.5552V23.5359H45.7834V22.5552H34.3376ZM46.8122 14.2971H46.0406L46.2721 10.8133H55.686L55.9174 14.2971H55.1458C54.9143 13.11 54.6314 12.3617 54.2456 12.052C53.8855 11.7423 53.4225 11.5875 52.8824 11.5875H51.7764V19.1229C51.7764 19.5875 52.0336 19.8197 52.548 19.8197H53.654V20.5939H48.0983V19.8197H49.1271C49.7187 19.8197 50.0273 19.5359 50.0273 18.9423V11.5875H49.0499C48.4326 11.5875 47.9439 11.7681 47.6096 12.1294C47.2752 12.4907 47.018 13.2133 46.8122 14.2971ZM45.7834 22.5552H56.1746V23.5359H45.7834V22.5552ZM61.4732 10.5036C62.7849 10.5036 63.8909 10.9681 64.7912 11.9229C65.6914 12.8778 66.1287 14.1165 66.1287 15.6907C66.1287 16.7746 65.9229 17.6778 65.5371 18.4262C65.1513 19.1746 64.5597 19.7681 63.8395 20.2068C63.0936 20.6455 62.2962 20.8778 61.4474 20.8778C60.1871 20.8778 59.1068 20.3875 58.2323 19.4326C57.3578 18.4778 56.9206 17.2133 56.9206 15.6907C56.9206 14.1423 57.3578 12.9036 58.2323 11.9488C59.1068 10.9939 60.1871 10.5036 61.4732 10.5036ZM61.4732 11.252C60.7015 11.252 60.0585 11.6133 59.5441 12.31C59.0554 13.0068 58.7982 14.1423 58.7982 15.6649C58.7982 17.2133 59.0554 18.3488 59.5441 19.0713C60.0328 19.7939 60.6758 20.1552 61.4732 20.1552C62.2962 20.1552 62.9393 19.7939 63.4537 19.0713C63.9681 18.3488 64.1996 17.1875 64.1996 15.5617C64.1996 14.0391 63.9424 12.9552 63.4537 12.2842C62.965 11.5875 62.2962 11.252 61.4732 11.252ZM56.1746 22.5552V23.5359H66.8489V22.5552H56.1746ZM71.0157 15.0197H72.8676C73.1248 13.4713 73.6906 12.3359 74.5137 11.5875C75.3625 10.8649 76.3399 10.5036 77.4202 10.5036C78.6805 10.5036 79.7865 10.9681 80.6867 11.8971C81.6127 12.8262 82.0757 14.0907 82.0757 15.7165C82.0757 17.3681 81.6127 18.6326 80.661 19.5359C79.7093 20.4391 78.6291 20.8778 77.4202 20.8778C76.2627 20.8778 75.2596 20.4907 74.4108 19.6907C73.5363 18.9165 73.0219 17.652 72.8418 15.8971H70.9899V19.0713C70.9899 19.5359 71.2471 19.7681 71.7616 19.7681H72.8418V20.5423H67.3118V19.7681H68.3407C68.9323 19.7681 69.2152 19.4842 69.2152 18.8907V12.2842C69.2152 11.8197 68.958 11.5875 68.4436 11.5875H67.3118V10.8133H72.8933V11.5875H71.8644C71.2729 11.5875 70.9899 11.8713 70.9899 12.4649V15.0197H71.0157ZM80.1723 15.5359C80.1723 13.9359 79.9151 12.8262 79.375 12.181C78.8605 11.5617 78.1918 11.2262 77.4459 11.2262C76.5971 11.2262 75.9284 11.6133 75.4654 12.3875C75.0024 13.1617 74.7709 14.2455 74.7709 15.6391C74.7709 17.1359 75.0024 18.2455 75.4911 18.9939C75.9798 19.7423 76.6228 20.1294 77.4459 20.1294C79.2464 20.1552 80.1723 18.6068 80.1723 15.5359ZM66.8489 22.5552H82.7959V23.5359H66.8489V22.5552ZM86.5768 10.6326C86.7312 11.3552 86.834 12.0778 86.8598 12.7488C87.3485 11.9746 87.8372 11.4326 88.3773 11.1229C88.9174 10.8133 89.4833 10.6326 90.1006 10.6326C90.7693 10.6326 91.4124 10.8391 92.004 11.252C92.6213 11.6649 93.11 12.2584 93.4958 13.0584C93.8816 13.8584 94.0616 14.7359 94.0616 15.7423C94.0616 17.3423 93.5987 18.6326 92.6727 19.6391C91.9011 20.4649 90.9751 20.9036 89.8948 20.9036C89.2775 20.9036 88.7374 20.7488 88.2487 20.4391C87.76 20.1294 87.3227 19.6649 86.9369 19.0455V22.9681C86.9369 23.2778 87.0141 23.4842 87.1684 23.6133C87.3485 23.7681 87.6057 23.8713 87.94 23.8713H88.6602V24.6197H83.4646V23.8713H84.1848C84.5191 23.8713 84.7764 23.7939 84.9307 23.6649C85.1107 23.5359 85.1879 23.3552 85.1879 23.1488V12.852C85.1879 12.3617 85.085 12.0262 84.8535 11.8197C84.622 11.6133 84.1591 11.51 83.4903 11.4842V10.7875L86.5768 10.6326ZM89.6119 11.5875C88.866 11.5875 88.223 11.9488 87.6828 12.6713C87.1684 13.3939 86.8855 14.452 86.8855 15.8455C86.8855 17.2391 87.1427 18.2713 87.6571 18.9423C88.1715 19.6133 88.8146 19.9488 89.5862 19.9488C90.3321 19.9488 90.898 19.6649 91.2838 19.0971C91.7982 18.3488 92.0554 17.2391 92.0554 15.7939C92.0554 14.2713 91.8239 13.1875 91.3609 12.5423C90.9237 11.8971 90.3321 11.5875 89.6119 11.5875ZM82.7959 22.5552V23.5359H95.039V22.5552H82.7959ZM104.144 12.4649V12.052C104.093 11.7423 103.836 11.5617 103.398 11.5617H102.292V10.7875H107.771V11.5617H106.794C106.202 11.5617 105.919 11.8455 105.919 12.4391V19.0713C105.919 19.5359 106.176 19.7681 106.691 19.7681H107.797V20.5423H102.241V19.7681H103.27C103.861 19.7681 104.144 19.4842 104.144 18.8907V13.5746L99.2315 18.7359V19.0971C99.2315 19.5617 99.4888 19.7939 99.9775 19.7939H101.109V20.5681H95.5535V19.7939H96.5823C97.1739 19.7939 97.4568 19.51 97.4568 18.9165V12.2842C97.4568 11.8197 97.1996 11.5875 96.7109 11.5875H95.6049V10.8133H101.109V11.5875H100.106C99.5145 11.5875 99.2315 11.8713 99.2315 12.4649V17.6778L104.144 12.4649ZM95.039 22.5552H108.285V23.5359H95.0648V22.5552H95.039ZM116.439 17.7036L117.108 17.91C116.567 19.9229 115.384 20.9036 113.532 20.9036C112.169 20.9036 111.063 20.4649 110.214 19.5617C109.366 18.6584 108.928 17.4713 108.928 15.9746C108.928 14.2455 109.391 12.9036 110.343 11.9488C111.295 10.9939 112.401 10.5294 113.687 10.5294C114.638 10.5294 115.436 10.7875 116.053 11.3294C116.67 11.8713 116.979 12.4391 116.979 13.11C116.979 13.4971 116.876 13.8326 116.619 14.0649C116.387 14.3229 116.105 14.452 115.796 14.452C115.487 14.452 115.23 14.3488 114.999 14.1165C114.793 13.91 114.664 13.6262 114.664 13.3423C114.664 13.0326 114.793 12.7488 115.024 12.4649C115.127 12.3359 115.179 12.2326 115.179 12.1552C115.179 11.9488 115.05 11.7681 114.767 11.5617C114.484 11.381 114.124 11.2778 113.661 11.2778C112.812 11.2778 112.169 11.5875 111.732 12.2068C111.115 13.11 110.806 14.2971 110.806 15.7681C110.806 17.1617 111.089 18.2197 111.629 18.9423C112.195 19.6649 112.889 20.0262 113.764 20.0262C114.973 20.0004 115.873 19.2262 116.439 17.7036ZM108.285 22.5552V23.5359H117.751V22.5552H108.285ZM118.677 5.13585H131.177L131.486 10.9681H130.765C130.302 7.53585 129.068 5.80682 127.062 5.80682C126.65 5.80682 126.393 5.88424 126.239 6.01327C126.084 6.1423 126.007 6.37456 126.007 6.71004V19.0713C126.007 19.3294 126.084 19.51 126.239 19.6133C126.393 19.7423 126.624 19.7939 126.959 19.7939H128.502V20.5681H121.352V19.7939H123.126C123.358 19.7939 123.538 19.7423 123.666 19.6133C123.795 19.4842 123.847 19.3294 123.847 19.1488V6.63262C123.847 6.37456 123.769 6.16811 123.615 6.03908C123.461 5.91004 123.203 5.83262 122.843 5.83262C121.84 5.83262 120.991 6.32295 120.323 7.27779C119.757 8.05198 119.371 9.31649 119.114 10.9939H118.342L118.677 5.13585ZM117.751 22.5552H131.974V23.5359H117.751V22.5552Z" fill="white"/>
<path fill-rule="evenodd" clip-rule="evenodd" d="M9.33667 20.6191H12.7833V25.2643H131.974V27.9482H9.33667V27.5095V25.2643V20.6191Z" fill="#FFED00" stroke="#FFED00" stroke-width="0.216" stroke-miterlimit="22.9256"/>
<path fill-rule="evenodd" clip-rule="evenodd" d="M0.231485 10.5036L10.4684 0.232611C10.7256 -0.0254536 11.1886 -0.0254536 11.4458 0.232611L21.6828 10.5036C21.94 10.7616 21.94 11.2262 21.6828 11.4842L11.4458 21.7552C11.1886 22.0133 10.7256 22.0133 10.4684 21.7552L0.231485 11.4842C-0.0514455 11.2262 -0.0514455 10.7616 0.231485 10.5036Z" fill="white" stroke="black" stroke-width="0.216" stroke-miterlimit="22.9256"/>
<path fill-rule="evenodd" clip-rule="evenodd" d="M3.78091 10.6582L10.6227 3.79369C10.8027 3.61304 11.0857 3.61304 11.2657 3.79369L18.1075 10.6582C18.2875 10.8388 18.2875 11.1227 18.1075 11.3034L11.2914 18.1937C11.1114 18.3743 10.8285 18.3743 10.6484 18.1937L3.78091 11.3292C3.60086 11.1485 3.60086 10.8388 3.78091 10.6582Z" fill="#FFED00" stroke="black" stroke-width="0.216" stroke-miterlimit="22.9256"/>
<path d="M37.4319 7.14726L37.8388 7.04134C37.8695 7.19875 37.9516 7.35615 38.0851 7.51355C38.22 7.67096 38.3981 7.74966 38.6195 7.74966C38.8453 7.74966 39.0234 7.69155 39.1539 7.57534C39.2844 7.45912 39.3497 7.31864 39.3497 7.15388C39.3497 6.97588 39.2807 6.83466 39.1429 6.73021C39.0051 6.6243 38.8174 6.57134 38.5799 6.57134H38.3754V6.19843C38.5718 6.19843 38.7221 6.18739 38.8262 6.16533C38.9303 6.14179 39.022 6.08368 39.1011 5.99101C39.1818 5.89686 39.2221 5.79021 39.2221 5.67105C39.2221 5.52983 39.1671 5.40699 39.0572 5.30255C38.9487 5.1981 38.8013 5.14588 38.6151 5.14588C38.4524 5.14588 38.3131 5.18707 38.1972 5.26945C38.0829 5.35036 38.0037 5.45848 37.9597 5.59382C37.9157 5.72769 37.8937 5.82772 37.8937 5.89392L37.4847 5.80124C37.5858 5.11425 37.9641 4.77076 38.6195 4.77076C38.9347 4.77076 39.1847 4.85902 39.3695 5.03555C39.5542 5.21061 39.6466 5.41582 39.6466 5.65119C39.6466 5.95276 39.5043 6.18666 39.2199 6.35289C39.3841 6.39849 39.5212 6.4919 39.6312 6.63312C39.7426 6.77287 39.7983 6.94058 39.7983 7.13623C39.7983 7.41426 39.6905 7.64742 39.475 7.83572C39.261 8.02254 38.9765 8.11595 38.6217 8.11595C38.0118 8.11595 37.6152 7.79305 37.4319 7.14726Z" fill="white"/>
<path d="M39.9765 8.06079L41.2146 4.82593H41.6743L42.9939 8.06079H42.5078L42.1317 7.08106H40.7836L40.4295 8.06079H39.9765ZM40.9067 6.73242H41.9998L41.6633 5.83654C41.5607 5.5644 41.4844 5.3408 41.4346 5.16574C41.3935 5.37316 41.3356 5.57911 41.2608 5.78359L40.9067 6.73242Z" fill="white"/>
<path d="M43.3414 4.82593H43.768V7.67905H44.8391V4.82593H45.2657V7.67905H46.3368V4.82593H46.7634V7.67905H47.0559V8.95887H46.6755V8.06079H43.3414V4.82593Z" fill="white"/>
<path d="M47.564 4.82593H47.951V7.38778L49.6665 4.82593H50.0953V8.06079H49.7083V5.50556L47.9906 8.06079H47.564V4.82593Z" fill="white"/>
<path d="M51.615 8.06079V5.20767H50.5528V4.82593H53.1084V5.20767H52.0417V8.06079H51.615Z" fill="white"/>
<path d="M53.0446 8.06079L54.2828 4.82593H54.7424L56.062 8.06079H55.5759L55.1999 7.08106H53.8517L53.4976 8.06079H53.0446ZM53.9749 6.73242H55.0679L54.7314 5.83654C54.6288 5.5644 54.5525 5.3408 54.5027 5.16574C54.4616 5.37316 54.4037 5.57911 54.329 5.78359L53.9749 6.73242Z" fill="white"/>
<path d="M57.6609 4.82593H60.1966V8.06079H59.7678V5.20767H58.0875V8.06079H57.6609V4.82593Z" fill="white"/>
<path d="M60.8938 8.06079V4.82593H62.11C62.3241 4.82593 62.4876 4.83622 62.6004 4.85682C62.7588 4.8833 62.8915 4.93405 62.9985 5.00907C63.1056 5.08263 63.1913 5.18634 63.2558 5.3202C63.3218 5.45407 63.3548 5.60117 63.3548 5.76152C63.3548 6.03661 63.2676 6.26977 63.0931 6.46101C62.9186 6.65078 62.6034 6.74566 62.1474 6.74566H61.3205V8.06079H60.8938ZM61.3205 6.36392H62.154C62.4296 6.36392 62.6254 6.31243 62.7412 6.20946C62.857 6.10648 62.9149 5.96158 62.9149 5.77476C62.9149 5.63942 62.8805 5.52394 62.8116 5.42833C62.7441 5.33124 62.6547 5.26724 62.5433 5.23635C62.4714 5.21723 62.3387 5.20767 62.1452 5.20767H61.3205V6.36392Z" fill="white"/>
<path d="M63.2404 8.06079L64.4786 4.82593H64.9383L66.2579 8.06079H65.7718L65.3957 7.08106H64.0476L63.6935 8.06079H63.2404ZM64.1707 6.73242H65.2638L64.9273 5.83654C64.8247 5.5644 64.7484 5.3408 64.6986 5.16574C64.6575 5.37316 64.5996 5.57911 64.5248 5.78359L64.1707 6.73242Z" fill="white"/>
<path d="M66.5811 8.06079V4.82593H67.7908C68.0371 4.82593 68.2343 4.85902 68.3824 4.92522C68.5319 4.98995 68.6485 5.09072 68.732 5.22753C68.8171 5.36286 68.8596 5.50482 68.8596 5.6534C68.8596 5.79168 68.8222 5.92187 68.7474 6.04396C68.6727 6.16606 68.5598 6.26462 68.4088 6.33965C68.6038 6.39702 68.7533 6.49484 68.8574 6.63312C68.963 6.7714 69.0158 6.93469 69.0158 7.12299C69.0158 7.27451 68.9835 7.41573 68.919 7.54665C68.8559 7.67611 68.7775 7.77614 68.6837 7.84675C68.5898 7.91736 68.4718 7.97105 68.3296 8.00783C68.1888 8.04314 68.0158 8.06079 67.8105 8.06079H66.5811ZM67.0078 6.18519H67.705C67.8941 6.18519 68.0297 6.17268 68.1118 6.14767C68.2203 6.11531 68.3017 6.06162 68.356 5.98659C68.4117 5.91157 68.4395 5.81742 68.4395 5.70415C68.4395 5.59676 68.4139 5.50261 68.3626 5.42171C68.3112 5.33933 68.2379 5.28343 68.1426 5.254C68.0473 5.22311 67.8839 5.20767 67.6522 5.20767H67.0078V6.18519ZM67.0078 7.67905H67.8105C67.9484 7.67905 68.0451 7.6739 68.1009 7.6636C68.1991 7.64595 68.2812 7.61653 68.3472 7.57534C68.4131 7.53415 68.4674 7.47457 68.5099 7.3966C68.5524 7.31717 68.5737 7.22596 68.5737 7.12299C68.5737 7.00236 68.5429 6.89791 68.4813 6.80965C68.4197 6.71992 68.334 6.6574 68.224 6.62209C68.1155 6.58531 67.9586 6.56693 67.7534 6.56693H67.0078V7.67905Z" fill="white"/>
<path d="M70.5025 8.06079L71.7407 4.82593H72.2003L73.5199 8.06079H73.0338L72.6578 7.08106H71.3096L70.9555 8.06079H70.5025ZM71.4328 6.73242H72.5258L72.1893 5.83654C72.0867 5.5644 72.0104 5.3408 71.9606 5.16574C71.9195 5.37316 71.8616 5.57911 71.7868 5.78359L71.4328 6.73242Z" fill="white"/>
<path d="M73.8432 8.06079V4.82593H75.0528C75.2991 4.82593 75.4963 4.85902 75.6444 4.92522C75.7939 4.98995 75.9105 5.09072 75.9941 5.22753C76.0791 5.36286 76.1216 5.50482 76.1216 5.6534C76.1216 5.79168 76.0842 5.92187 76.0095 6.04396C75.9347 6.16606 75.8218 6.26462 75.6708 6.33965C75.8658 6.39702 76.0153 6.49484 76.1194 6.63312C76.225 6.7714 76.2778 6.93469 76.2778 7.12299C76.2778 7.27451 76.2455 7.41573 76.181 7.54665C76.118 7.67611 76.0395 7.77614 75.9457 7.84675C75.8518 7.91736 75.7338 7.97105 75.5916 8.00783C75.4508 8.04314 75.2778 8.06079 75.0726 8.06079H73.8432ZM74.2698 6.18519H74.967C75.1561 6.18519 75.2918 6.17268 75.3739 6.14767C75.4824 6.11531 75.5637 6.06162 75.618 5.98659C75.6737 5.91157 75.7016 5.81742 75.7016 5.70415C75.7016 5.59676 75.6759 5.50261 75.6246 5.42171C75.5733 5.33933 75.5 5.28343 75.4047 5.254C75.3094 5.22311 75.1459 5.20767 74.9142 5.20767H74.2698V6.18519ZM74.2698 7.67905H75.0726C75.2104 7.67905 75.3072 7.6739 75.3629 7.6636C75.4611 7.64595 75.5432 7.61653 75.6092 7.57534C75.6752 7.53415 75.7294 7.47457 75.7719 7.3966C75.8145 7.31717 75.8357 7.22596 75.8357 7.12299C75.8357 7.00236 75.8049 6.89791 75.7433 6.80965C75.6818 6.71992 75.596 6.6574 75.486 6.62209C75.3775 6.58531 75.2207 6.56693 75.0154 6.56693H74.2698V7.67905Z" fill="white"/>
<path d="M77.3818 8.06079V5.20767H76.3196V4.82593H78.8751V5.20767H77.8085V8.06079H77.3818Z" fill="white"/>
<path d="M78.9829 6.48528C78.9829 5.94835 79.1266 5.52836 79.414 5.22532C79.7013 4.92081 80.0723 4.76855 80.5268 4.76855C80.8244 4.76855 81.0927 4.8399 81.3317 4.98259C81.5707 5.12529 81.7525 5.32462 81.8771 5.58058C82.0032 5.83507 82.0663 6.12414 82.0663 6.44777C82.0663 6.77582 82.0003 7.06929 81.8683 7.3282C81.7364 7.58711 81.5495 7.78349 81.3075 7.91736C81.0656 8.04975 80.8046 8.11595 80.5246 8.11595C80.2211 8.11595 79.9498 8.0424 79.7109 7.89529C79.4719 7.74819 79.2908 7.54739 79.1676 7.29289C79.0445 7.0384 78.9829 6.7692 78.9829 6.48528ZM79.4227 6.4919C79.4227 6.88173 79.5268 7.18918 79.735 7.41426C79.9447 7.63786 80.2072 7.74966 80.5224 7.74966C80.8435 7.74966 81.1074 7.63639 81.3141 7.40984C81.5223 7.1833 81.6264 6.86187 81.6264 6.44556C81.6264 6.18224 81.5817 5.95276 81.4923 5.75711C81.4043 5.55999 81.2745 5.40773 81.103 5.30034C80.9329 5.19148 80.7416 5.13706 80.529 5.13706C80.2269 5.13706 79.9667 5.2415 79.7482 5.45039C79.5312 5.65781 79.4227 6.00498 79.4227 6.4919Z" fill="white"/>
<path d="M82.6007 8.06079V4.82593H83.8103C84.0566 4.82593 84.2538 4.85902 84.4019 4.92522C84.5515 4.98995 84.668 5.09072 84.7516 5.22753C84.8366 5.36286 84.8792 5.50482 84.8792 5.6534C84.8792 5.79168 84.8418 5.92187 84.767 6.04396C84.6922 6.16606 84.5793 6.26462 84.4283 6.33965C84.6233 6.39702 84.7729 6.49484 84.877 6.63312C84.9825 6.7714 85.0353 6.93469 85.0353 7.12299C85.0353 7.27451 85.0031 7.41573 84.9385 7.54665C84.8755 7.67611 84.7971 7.77614 84.7032 7.84675C84.6094 7.91736 84.4914 7.97105 84.3491 8.00783C84.2084 8.04314 84.0354 8.06079 83.8301 8.06079H82.6007ZM83.0274 6.18519H83.7245C83.9137 6.18519 84.0493 6.17268 84.1314 6.14767C84.2399 6.11531 84.3213 6.06162 84.3755 5.98659C84.4312 5.91157 84.4591 5.81742 84.4591 5.70415C84.4591 5.59676 84.4334 5.50261 84.3821 5.42171C84.3308 5.33933 84.2575 5.28343 84.1622 5.254C84.0669 5.22311 83.9034 5.20767 83.6718 5.20767H83.0274V6.18519ZM83.0274 7.67905H83.8301C83.9679 7.67905 84.0647 7.6739 84.1204 7.6636C84.2186 7.64595 84.3008 7.61653 84.3667 7.57534C84.4327 7.53415 84.487 7.47457 84.5295 7.3966C84.572 7.31717 84.5933 7.22596 84.5933 7.12299C84.5933 7.00236 84.5625 6.89791 84.5009 6.80965C84.4393 6.71992 84.3535 6.6574 84.2436 6.62209C84.1351 6.58531 83.9782 6.56693 83.7729 6.56693H83.0274V7.67905Z" fill="white"/>
<path d="M85.8051 4.82593H87.824V8.06079H87.3973V5.20767H86.2317V6.87364C86.2317 7.21199 86.2156 7.45986 86.1833 7.61726C86.1525 7.77467 86.0866 7.8975 85.9854 7.98576C85.8842 8.07256 85.7559 8.11595 85.6005 8.11595C85.5067 8.11595 85.3938 8.0983 85.2618 8.06299L85.3344 7.68346C85.4048 7.71288 85.4649 7.72759 85.5148 7.72759C85.6115 7.72759 85.6841 7.69155 85.7325 7.61947C85.7809 7.54592 85.8051 7.3738 85.8051 7.10313V4.82593Z" fill="white"/>
<path d="M88.1715 8.06079L89.4097 4.82593H89.8693L91.1889 8.06079H90.7029L90.3268 7.08106H88.9786L88.6245 8.06079H88.1715ZM89.1018 6.73242H90.1948L89.8583 5.83654C89.7557 5.5644 89.6795 5.3408 89.6296 5.16574C89.5886 5.37316 89.5306 5.57911 89.4559 5.78359L89.1018 6.73242Z" fill="white"/>
<path d="M91.9718 4.82593H93.9336V7.67905H94.2239V8.81544H93.8434V8.06079H91.7123V8.81544H91.3318V7.67905H91.5826C91.8421 7.28627 91.9718 6.49264 91.9718 5.29814V4.82593ZM93.5069 5.20767H92.3831V5.37316C92.3831 5.64825 92.3582 6.02484 92.3083 6.50293C92.2599 6.97956 92.1639 7.3716 92.0202 7.67905H93.5069V5.20767Z" fill="white"/>
<path d="M94.7407 8.06079V4.82593H97.072V5.20767H95.1674V6.19843H96.951V6.57796H95.1674V7.67905H97.1467V8.06079H94.7407Z" fill="white"/>
<path d="M97.9715 4.82593H99.9904V8.06079H99.5638V5.20767H98.3981V6.87364C98.3981 7.21199 98.382 7.45986 98.3498 7.61726C98.319 7.77467 98.253 7.8975 98.1518 7.98576C98.0507 8.07256 97.9224 8.11595 97.7669 8.11595C97.6731 8.11595 97.5602 8.0983 97.4283 8.06299L97.5008 7.68346C97.5712 7.71288 97.6313 7.72759 97.6812 7.72759C97.7779 7.72759 97.8505 7.69155 97.8989 7.61947C97.9473 7.54592 97.9715 7.3738 97.9715 7.10313V4.82593Z" fill="white"/>
<path d="M100.707 4.82593H101.134V6.20725H101.904C102.263 6.20725 102.523 6.24918 102.685 6.33303C102.846 6.41688 102.962 6.53089 103.032 6.67505C103.102 6.81921 103.138 6.96779 103.138 7.12078C103.138 7.37086 103.053 7.59005 102.882 7.77834C102.712 7.96664 102.396 8.06079 101.932 8.06079H100.707V4.82593ZM101.134 7.6967H101.915C102.231 7.6967 102.437 7.6408 102.533 7.529C102.63 7.41573 102.678 7.27965 102.678 7.12078C102.678 6.99133 102.643 6.88173 102.572 6.792C102.503 6.70079 102.411 6.64195 102.295 6.61547C102.179 6.58899 101.983 6.57575 101.706 6.57575H101.134V7.6967Z" fill="white"/>
<path d="M103.65 4.82593H104.077V7.67905H105.757V4.82593H106.186V7.67905H106.48V8.95887H106.102V8.06079H103.65V4.82593Z" fill="white"/>
<path d="M106.991 8.06079V4.82593H109.322V5.20767H107.417V6.19843H109.201V6.57796H107.417V7.67905H109.397V8.06079H106.991Z" fill="white"/>
<path d="M109.969 8.06079V4.82593H111.178C111.424 4.82593 111.622 4.85902 111.77 4.92522C111.919 4.98995 112.036 5.09072 112.119 5.22753C112.204 5.36286 112.247 5.50482 112.247 5.6534C112.247 5.79168 112.21 5.92187 112.135 6.04396C112.06 6.16606 111.947 6.26462 111.796 6.33965C111.991 6.39702 112.141 6.49484 112.245 6.63312C112.35 6.7714 112.403 6.93469 112.403 7.12299C112.403 7.27451 112.371 7.41573 112.306 7.54665C112.243 7.67611 112.165 7.77614 112.071 7.84675C111.977 7.91736 111.859 7.97105 111.717 8.00783C111.576 8.04314 111.403 8.06079 111.198 8.06079H109.969ZM110.395 6.18519H111.092C111.282 6.18519 111.417 6.17268 111.499 6.14767C111.608 6.11531 111.689 6.06162 111.743 5.98659C111.799 5.91157 111.827 5.81742 111.827 5.70415C111.827 5.59676 111.801 5.50261 111.75 5.42171C111.699 5.33933 111.625 5.28343 111.53 5.254C111.435 5.22311 111.271 5.20767 111.04 5.20767H110.395V6.18519ZM110.395 7.67905H111.198C111.336 7.67905 111.433 7.6739 111.488 7.6636C111.586 7.64595 111.669 7.61653 111.735 7.57534C111.801 7.53415 111.855 7.47457 111.897 7.3966C111.94 7.31717 111.961 7.22596 111.961 7.12299C111.961 7.00236 111.93 6.89791 111.869 6.80965C111.807 6.71992 111.721 6.6574 111.611 6.62209C111.503 6.58531 111.346 6.56693 111.141 6.56693H110.395V7.67905Z" fill="white"/>
</g>
<defs>
<clipPath id="clip0_3254_1845">
<rect width="132" height="28" fill="white"/>
</clipPath>
</defs>
</svg>
