<svg width="38" height="38" viewBox="0 0 38 38" fill="none" xmlns="http://www.w3.org/2000/svg">
<g clip-path="url(#clip0_3215_647)">
<path d="M38 19.0001C38 25.2731 32.9333 30.4001 26.6 30.4001C20.327 30.4001 15.2 25.2731 15.2 19.0001C15.2 12.7271 20.2667 7.6001 26.5397 7.6001C32.9333 7.6001 38 12.7271 38 19.0001Z" fill="#FFB600"/>
<path d="M22.1365 22.6792H15.8635C15.9841 23.1015 16.1651 23.5237 16.346 23.8856H21.7143C21.5333 24.3078 21.2921 24.73 21.0508 25.0919H17.0095C17.2508 25.4538 17.5524 25.8761 17.854 26.238H20.2064C19.8444 26.6602 19.4825 27.0824 19.0603 27.4443C17.0095 29.2539 14.3556 30.3999 11.4 30.3999H11.3698C11.3397 30.3999 11.3095 30.3999 11.2869 30.3999C5.02897 30.3546 -0.0301514 25.2654 -0.0301514 18.9999C-0.0301514 12.8098 4.9008 7.77329 11.0532 7.60742C11.0607 7.60742 11.0683 7.60742 11.0758 7.60742C11.121 7.60742 11.1587 7.60742 11.204 7.60742C11.2115 7.60742 11.2191 7.60742 11.2266 7.60742C11.2568 7.60742 11.2869 7.60742 11.3171 7.60742C11.3321 7.60742 11.3548 7.60742 11.3698 7.60742C13.5036 7.63004 15.5016 8.44433 15.5016 8.44433C17.1679 9.1229 18.3214 10.0503 19 10.6836C18.5778 11.0455 18.2159 11.4074 17.854 11.8296H20.0857C20.4476 12.1915 20.7492 12.6138 20.9905 13.036H16.9492C16.7079 13.4582 16.4667 13.8201 16.2857 14.2423H21.5937C21.7746 14.6042 21.9556 15.0265 22.0762 15.4487H15.8032C15.6825 15.8709 15.5619 16.2328 15.5016 16.655H22.4984C22.6191 17.4392 22.7397 18.2233 22.7397 19.0677C22.7397 20.3269 22.4984 21.5332 22.1365 22.6792Z" fill="#FF5050"/>
<path d="M15.4412 21.8953L15.6222 20.8699C15.5619 20.8699 15.4412 20.9303 15.3206 20.9303C14.8984 20.9303 14.838 20.689 14.8984 20.5684L15.2603 18.4572H15.9238L16.1047 17.3112H15.5015L15.6222 16.5874H14.4158C14.4158 16.5874 13.692 20.5684 13.692 21.0509C13.692 21.7747 14.1142 22.0763 14.6571 22.0763C15.019 22.0763 15.3206 21.9557 15.4412 21.8953Z" fill="white"/>
<path d="M15.8635 19.9651C15.8635 21.654 17.0095 22.0762 17.9746 22.0762C18.8793 22.0762 19.2412 21.8952 19.2412 21.8952L19.4825 20.7492C19.4825 20.7492 18.819 21.0508 18.2158 21.0508C16.8889 21.0508 17.1301 20.0857 17.1301 20.0857H19.6031C19.6031 20.0857 19.7841 19.3016 19.7841 19C19.7841 18.2159 19.3619 17.2508 18.0349 17.2508C16.7682 17.1302 15.8635 18.4571 15.8635 19.9651ZM17.9746 18.2159C18.6381 18.2159 18.5174 19 18.5174 19.0603H17.1904C17.1904 19 17.3111 18.2159 17.9746 18.2159Z" fill="white"/>
<path d="M25.635 21.8952L25.8762 20.5682C25.8762 20.5682 25.2731 20.8698 24.8508 20.8698C24.0064 20.8698 23.6445 20.2063 23.6445 19.4825C23.6445 18.0349 24.3683 17.2508 25.2127 17.2508C25.8159 17.2508 26.2985 17.6127 26.2985 17.6127L26.4794 16.346C26.4794 16.346 25.7556 16.0444 25.0921 16.0444C23.7048 16.0444 22.3175 17.2508 22.3175 19.5428C22.3175 21.0508 23.0413 22.0762 24.4889 22.0762C24.9715 22.0762 25.635 21.8952 25.635 21.8952Z" fill="white"/>
<path d="M8.80634 17.1304C7.9619 17.1304 7.35872 17.3716 7.35872 17.3716L7.17777 18.397C7.17777 18.397 7.72063 18.1558 8.50475 18.1558C8.92698 18.1558 9.28888 18.2161 9.28888 18.578C9.28888 18.8193 9.22856 18.8796 9.22856 18.8796C9.22856 18.8796 8.86666 18.8796 8.68571 18.8796C7.66031 18.8796 6.51428 19.3018 6.51428 20.6891C6.51428 21.7748 7.23809 22.0161 7.66031 22.0161C8.50475 22.0161 8.86666 21.4732 8.92698 21.4732L8.86666 21.9558H9.95237L10.4349 18.6383C10.4349 17.1907 9.22856 17.1304 8.80634 17.1304ZM9.04761 19.8447C9.04761 20.0256 8.92698 20.9907 8.20317 20.9907C7.84126 20.9907 7.72063 20.6891 7.72063 20.5081C7.72063 20.2066 7.90158 19.7843 8.80634 19.7843C8.98729 19.8446 9.04761 19.8447 9.04761 19.8447Z" fill="white"/>
<path d="M11.581 22.0158C11.8826 22.0158 13.3905 22.0762 13.3905 20.4476C13.3905 18.9397 11.9429 19.2412 11.9429 18.6381C11.9429 18.3365 12.1841 18.2159 12.6064 18.2159C12.7873 18.2159 13.4508 18.2762 13.4508 18.2762L13.6318 17.1905C13.6318 17.1905 13.2095 17.0698 12.4857 17.0698C11.581 17.0698 10.6762 17.4317 10.6762 18.6381C10.6762 20.0254 12.1841 19.9047 12.1841 20.4476C12.1841 20.8095 11.7619 20.8698 11.4603 20.8698C10.9175 20.8698 10.3746 20.6889 10.3746 20.6889L10.1937 21.7746C10.254 21.8952 10.5556 22.0158 11.581 22.0158Z" fill="white"/>
<path d="M35.6476 16.165L35.4063 17.7936C35.4063 17.7936 34.9238 17.1904 34.2603 17.1904C33.1745 17.1904 32.2095 18.5174 32.2095 20.0857C32.2095 21.0508 32.692 22.0762 33.7174 22.0762C34.4412 22.0762 34.8634 21.5936 34.8634 21.5936L34.8031 22.0158H36.0095L36.9142 16.2254L35.6476 16.165ZM35.1047 19.3619C35.1047 20.0254 34.8031 20.8698 34.1396 20.8698C33.7174 20.8698 33.4761 20.5079 33.4761 19.9047C33.4761 18.9396 33.8984 18.3365 34.4412 18.3365C34.8634 18.3365 35.1047 18.6381 35.1047 19.3619Z" fill="white"/>
<path d="M2.23173 21.9555L2.95553 17.6127L3.07617 21.9555H3.92061L5.48887 17.6127L4.82538 21.9555H6.09204L7.05712 16.165H5.06665L3.8603 19.7238L3.79998 16.165H2.05077L1.08569 21.9555H2.23173Z" fill="white"/>
<path d="M20.9302 21.9557C21.2921 19.9653 21.3524 18.3367 22.1969 18.6383C22.3175 17.8541 22.4984 17.5526 22.6191 17.251C22.6191 17.251 22.5588 17.251 22.3778 17.251C21.835 17.251 21.4127 17.9748 21.4127 17.9748L21.5334 17.3113H20.3873L19.6032 22.016H20.9302V21.9557Z" fill="white"/>
<path d="M28.4095 17.1304C27.5651 17.1304 26.9619 17.3716 26.9619 17.3716L26.7809 18.397C26.7809 18.397 27.3238 18.1558 28.1079 18.1558C28.5301 18.1558 28.892 18.2161 28.892 18.578C28.892 18.8193 28.8317 18.8796 28.8317 18.8796C28.8317 18.8796 28.4698 18.8796 28.2889 18.8796C27.2635 18.8796 26.1174 19.3018 26.1174 20.6891C26.1174 21.7748 26.8412 22.0161 27.2635 22.0161C28.1079 22.0161 28.4698 21.4732 28.5301 21.4732L28.4698 21.9558H29.5555L30.0381 18.6383C30.0984 17.1907 28.8317 17.1304 28.4095 17.1304ZM28.7111 19.8447C28.7111 20.0256 28.5905 20.9907 27.8666 20.9907C27.5047 20.9907 27.3841 20.6891 27.3841 20.5081C27.3841 20.2066 27.5651 19.7843 28.4698 19.7843C28.6508 19.8446 28.6508 19.8447 28.7111 19.8447Z" fill="white"/>
<path d="M31.0635 21.9557C31.4254 19.9653 31.4857 18.3367 32.3302 18.6383C32.4508 17.8541 32.6318 17.5526 32.7524 17.251C32.7524 17.251 32.6921 17.251 32.5111 17.251C31.9683 17.251 31.546 17.9748 31.546 17.9748L31.6667 17.3113H30.5206L29.7365 22.016H31.0635V21.9557Z" fill="white"/>
</g>
<defs>
<clipPath id="clip0_3215_647">
<rect width="38" height="38" fill="white"/>
</clipPath>
</defs>
</svg>
