<svg width="38" height="38" viewBox="0 0 38 38" fill="none" xmlns="http://www.w3.org/2000/svg">
<path fill-rule="evenodd" clip-rule="evenodd" d="M3.51055 13.8195C3.85195 13.8195 4.86133 13.723 5.28437 15.1703C5.57383 16.1425 6.03398 17.7308 6.65742 19.9425H6.91719C7.59258 17.6121 8.05273 16.0164 8.30508 15.1703C8.73555 13.7156 9.81914 13.8195 10.2496 13.8195H13.582V24.1804H10.1828V18.0722H9.95273L8.06016 24.1804H5.51445L3.62188 18.0648H3.3918V24.1804H0V13.8195H3.51055ZM18.4656 13.8195V19.9351H18.7328L21.0336 14.9105C21.4789 13.9086 22.4363 13.8269 22.4363 13.8269H25.7242V24.1879H22.2582V18.0722H21.991L19.7348 23.0969C19.2895 24.0914 18.2875 24.1804 18.2875 24.1804H14.9996V13.8195H18.4656ZM37.7031 18.7476C37.2207 20.1207 35.6992 21.1004 34.0219 21.1004H30.3852V24.1879H27.0898V18.7476H37.7031Z" fill="#0F754E"/>
<path fill-rule="evenodd" clip-rule="evenodd" d="M34.1778 13.8193H26.9117C27.0824 16.1275 29.0715 18.1018 31.1274 18.1018H37.9258C38.3266 16.1869 36.9758 13.8193 34.1778 13.8193Z" fill="url(#paint0_linear_3215_641)"/>
<defs>
<linearGradient id="paint0_linear_3215_641" x1="38" y1="15.9605" x2="26.9159" y2="15.9605" gradientUnits="userSpaceOnUse">
<stop stop-color="#1F5CD7"/>
<stop offset="1" stop-color="#02AEFF"/>
</linearGradient>
</defs>
</svg>
