<svg width="38" height="38" viewBox="0 0 38 38" fill="none" xmlns="http://www.w3.org/2000/svg">
<path d="M13.9333 24.4588L15.8635 13.6016H18.8794L17.0095 24.4588H13.9333ZM27.927 13.7223C27.3238 13.481 26.3587 13.2397 25.1524 13.2397C22.1365 13.2397 19.9651 14.7477 19.9651 16.9191C19.9651 18.5477 21.473 19.3921 22.6794 19.935C23.8857 20.4778 24.2476 20.8397 24.2476 21.3223C24.2476 22.0461 23.2825 22.408 22.4381 22.408C21.2317 22.408 20.5682 22.227 19.5428 21.8048L19.1206 21.6239L18.6984 24.0969C19.4222 24.3985 20.7492 24.7001 22.1365 24.7001C25.3333 24.7001 27.4444 23.1921 27.4444 20.9001C27.4444 19.6334 26.6603 18.6683 24.8508 17.8842C23.7651 17.3413 23.1016 17.0397 23.1016 16.4969C23.1016 16.0143 23.6444 15.5318 24.8508 15.5318C25.8762 15.5318 26.6 15.7128 27.1428 15.954L27.4444 16.0747L27.927 13.7223ZM33.1143 13.6016C32.3905 13.6016 31.8476 13.662 31.546 14.3858L27.0222 24.4588H30.2794L30.8825 22.6493H34.7428L35.1047 24.4588H38L35.4667 13.6016H33.1143ZM31.727 20.8397C31.9079 20.2969 32.9333 17.6429 32.9333 17.6429C32.9333 17.6429 33.1746 16.9794 33.3555 16.5572L33.5365 17.5826C33.5365 17.5826 34.1397 20.2969 34.2603 20.9001H31.727V20.8397ZM11.4603 13.662L8.38412 21.2017L8.08253 19.6334C7.38888 17.8013 5.9488 16.1576 3.89801 15.004L6.5746 24.5191H9.83174L14.7175 13.662H11.4603Z" fill="#293688"/>
<path d="M8.08254 19.6333L6.99683 14.5063C6.81587 13.7825 6.27302 13.6016 5.60952 13.6016H0L0.542857 13.7222C1.79444 14.0162 2.91786 14.4535 3.89802 15.0039C5.94881 16.1575 7.38889 17.8012 8.08254 19.6333Z" fill="#F7981D"/>
</svg>
