<svg width="24" height="24" viewBox="0 0 24 24" fill="none" xmlns="http://www.w3.org/2000/svg">
<path d="M16.0091 14.5702L13.377 11.9418L16.0091 9.31348C16.3717 8.9509 16.3717 8.36238 16.01 7.99882C15.6465 7.63436 15.058 7.6353 14.6945 7.99788L12.0605 10.6281L9.42661 7.99788C9.06309 7.6353 8.47457 7.63436 8.11105 7.99882C7.74847 8.36233 7.74847 8.95085 8.11199 9.31348L10.7441 11.9418L8.11199 14.5702C7.74847 14.9328 7.74847 15.5213 8.11105 15.8848C8.29237 16.067 8.53129 16.1572 8.76932 16.1572C9.00736 16.1572 9.24534 16.0661 9.42666 15.8857L12.0606 13.2555L14.6945 15.8857C14.8758 16.067 15.1138 16.1572 15.3519 16.1572C15.5899 16.1572 15.8288 16.0661 16.0101 15.8848C16.3726 15.5213 16.3726 14.9328 16.0091 14.5702Z" fill="black" fill-opacity="0.35"/>
<path d="M12 22.5C6.20101 22.5 1.5 17.799 1.5 12H-1.5C-1.5 19.4558 4.54416 25.5 12 25.5V22.5ZM22.5 12C22.5 17.799 17.799 22.5 12 22.5V25.5C19.4558 25.5 25.5 19.4558 25.5 12H22.5ZM12 1.5C17.799 1.5 22.5 6.20101 22.5 12H25.5C25.5 4.54416 19.4558 -1.5 12 -1.5V1.5ZM12 -1.5C4.54416 -1.5 -1.5 4.54416 -1.5 12H1.5C1.5 6.20101 6.20101 1.5 12 1.5V-1.5Z" fill="white"/>
<path d="M12 22.5C6.20101 22.5 1.5 17.799 1.5 12H-1.5C-1.5 19.4558 4.54416 25.5 12 25.5V22.5ZM22.5 12C22.5 17.799 17.799 22.5 12 22.5V25.5C19.4558 25.5 25.5 19.4558 25.5 12H22.5ZM12 1.5C17.799 1.5 22.5 6.20101 22.5 12H25.5C25.5 4.54416 19.4558 -1.5 12 -1.5V1.5ZM12 -1.5C4.54416 -1.5 -1.5 4.54416 -1.5 12H1.5C1.5 6.20101 6.20101 1.5 12 1.5V-1.5Z" fill="black" fill-opacity="0.75"/>
</svg>
