<svg width="24" height="24" viewBox="0 0 24 24" fill="none" xmlns="http://www.w3.org/2000/svg">
<path d="M0 12C0 5.37258 5.37258 0 12 0C18.6274 0 24 5.37258 24 12C24 18.6274 18.6274 24 12 24C5.37258 24 0 18.6274 0 12Z" fill="white"/>
<path d="M0 12C0 5.37258 5.37258 0 12 0C18.6274 0 24 5.37258 24 12C24 18.6274 18.6274 24 12 24C5.37258 24 0 18.6274 0 12Z" fill="black" fill-opacity="0.75"/>
<path d="M16.7114 11.0082L12.9917 11.0108L12.9943 7.29111C12.9944 6.77835 12.5782 6.3622 12.0654 6.36084C11.5506 6.36018 11.1352 6.77699 11.1345 7.29042L11.1319 11.0127L7.40956 11.0154C6.89613 11.016 6.47932 11.4315 6.47998 11.9463C6.48064 12.4597 6.89679 12.8758 7.41025 12.8752L11.13 12.8726L11.1273 16.5923C11.1266 17.1057 11.5428 17.5218 12.0562 17.5225C12.3133 17.5232 12.546 17.418 12.7143 17.2497C12.8826 17.0814 12.9865 16.8486 12.9871 16.5929L12.9898 12.8706L16.7121 12.8679C16.9685 12.8679 17.2006 12.7634 17.3689 12.5951C17.5372 12.4268 17.6417 12.1934 17.6417 11.937C17.641 11.4236 17.2248 11.0075 16.7114 11.0082Z" fill="#C5B927"/>
</svg>
