<svg width="32" height="32" viewBox="0 0 32 32" fill="none" xmlns="http://www.w3.org/2000/svg">
<g clip-path="url(#clip0_196_8)">
<path d="M11.6 14.0812C11.2438 14.0812 10.9063 13.8937 10.725 13.5812C10.7125 13.5625 10.7 13.5437 10.6875 13.5187L8.31251 10.1625C7.55001 8.92499 6.18126 8.15624 4.72501 8.15624C4.71876 8.15624 4.71876 8.15624 4.71251 8.15624L0.925009 8.19999C0.406259 8.20624 -0.00624094 8.63124 9.05796e-06 9.14999C0.00625906 9.66249 0.425009 10.075 0.937509 10.075C0.943759 10.075 0.943759 10.075 0.950009 10.075L4.73126 10.0312C5.54376 10.0312 6.30626 10.4687 6.72501 11.1625C6.73751 11.1812 6.75001 11.2 6.76251 11.2187L9.13751 14.575C9.66251 15.425 10.6063 15.95 11.6 15.95C12.7875 15.95 13.7563 16.9187 13.7563 18.1062V20.2375C13.7563 20.8 13.3 21.2562 12.7375 21.2562H9.62501C9.21251 19.75 7.83751 18.6437 6.20001 18.6437C4.56251 18.6437 3.18751 19.75 2.77501 21.2562H0.937509C0.418759 21.2562 9.05796e-06 21.675 9.05796e-06 22.1937C9.05796e-06 22.7125 0.418759 23.1312 0.937509 23.1312H2.78126C3.19376 24.6375 4.56876 25.7437 6.20626 25.7437C7.84376 25.7437 9.21876 24.6375 9.63126 23.1312H12.7375C14.3375 23.1312 15.6313 21.8312 15.6313 20.2375V18.1062C15.6313 15.8937 13.825 14.0812 11.6 14.0812ZM6.20626 23.8812C5.28126 23.8812 4.53126 23.1312 4.53126 22.2062C4.53126 21.2812 5.28126 20.5312 6.20626 20.5312C7.13126 20.5312 7.88126 21.2812 7.88126 22.2062C7.88126 23.1312 7.12501 23.8812 6.20626 23.8812ZM9.05796e-06 15.65C9.05796e-06 15.1312 0.418759 14.7125 0.937509 14.7125H4.70626C5.22501 14.7125 5.64376 15.1312 5.64376 15.65C5.64376 16.1687 5.22501 16.5875 4.70626 16.5875H0.937509C0.418759 16.5875 9.05796e-06 16.1687 9.05796e-06 15.65ZM31.0625 21.2687H29.2188C28.8063 19.7625 27.4313 18.6562 25.7938 18.6562C24.1563 18.6562 22.7813 19.7625 22.3688 21.2687H19.2625C18.7 21.2687 18.2438 20.8125 18.2438 20.25V18.1187C18.2438 16.9312 19.2125 15.9625 20.4 15.9625C21.4 15.9625 22.3375 15.4375 22.8625 14.5875L25.2375 11.2312C25.25 11.2125 25.2625 11.1937 25.275 11.175C25.6938 10.475 26.4625 10.0437 27.275 10.0437H31.0625C31.5813 10.0437 32 9.62499 32 9.10624C32 8.58749 31.5813 8.16874 31.0625 8.16874H27.275C25.8188 8.16874 24.45 8.93749 23.6875 10.175L21.3125 13.5312C21.3 13.55 21.2875 13.5687 21.275 13.5937C21.0938 13.9 20.7563 14.0937 20.4 14.0937C18.1813 14.0937 16.3688 15.9 16.3688 18.125V20.2562C16.3688 21.8562 17.6688 23.15 19.2625 23.15H22.375C22.7875 24.6562 24.1625 25.7625 25.8 25.7625C27.4375 25.7625 28.8125 24.6562 29.225 23.15H31.0625C31.5813 23.15 32 22.7312 32 22.2125C32 21.6937 31.5813 21.2687 31.0625 21.2687ZM25.7938 23.8812C24.8688 23.8812 24.1188 23.1312 24.1188 22.2062C24.1188 21.2812 24.8688 20.5312 25.7938 20.5312C26.7188 20.5312 27.4688 21.2812 27.4688 22.2062C27.4688 23.1312 26.7188 23.8812 25.7938 23.8812ZM32 15.65C32 16.1687 31.5813 16.5875 31.0625 16.5875H27.2938C26.775 16.5875 26.3563 16.1687 26.3563 15.65C26.3563 15.1312 26.775 14.7125 27.2938 14.7125H31.0625C31.5813 14.7125 32 15.1375 32 15.65ZM18.5625 12.4562C18.1938 12.0875 18.1938 11.4937 18.5625 11.1312L20.3688 9.32499C20.7375 8.95624 21.3313 8.95624 21.6938 9.32499C22.0625 9.69374 22.0625 10.2875 21.6938 10.65L19.8875 12.4562C19.7063 12.6375 19.4625 12.7312 19.225 12.7312C18.9875 12.7312 18.7438 12.6437 18.5625 12.4562ZM16 11.2125C15.4813 11.2125 15.0625 10.7937 15.0625 10.275V7.18124C15.0625 6.66249 15.4813 6.24374 16 6.24374C16.5188 6.24374 16.9375 6.66249 16.9375 7.18124V10.275C16.9375 10.7937 16.5188 11.2125 16 11.2125ZM10.3 10.65C9.93126 10.2812 9.93126 9.68749 10.3 9.32499C10.6688 8.95624 11.2625 8.95624 11.625 9.32499L13.4313 11.1312C13.8 11.5 13.8 12.0937 13.4313 12.4562C13.25 12.6375 13.0063 12.7312 12.7688 12.7312C12.5313 12.7312 12.2875 12.6375 12.1063 12.4562L10.3 10.65Z" fill="white"/>
<path d="M11.6 14.0812C11.2438 14.0812 10.9063 13.8937 10.725 13.5812C10.7125 13.5625 10.7 13.5437 10.6875 13.5187L8.31251 10.1625C7.55001 8.92499 6.18126 8.15624 4.72501 8.15624C4.71876 8.15624 4.71876 8.15624 4.71251 8.15624L0.925009 8.19999C0.406259 8.20624 -0.00624094 8.63124 9.05796e-06 9.14999C0.00625906 9.66249 0.425009 10.075 0.937509 10.075C0.943759 10.075 0.943759 10.075 0.950009 10.075L4.73126 10.0312C5.54376 10.0312 6.30626 10.4687 6.72501 11.1625C6.73751 11.1812 6.75001 11.2 6.76251 11.2187L9.13751 14.575C9.66251 15.425 10.6063 15.95 11.6 15.95C12.7875 15.95 13.7563 16.9187 13.7563 18.1062V20.2375C13.7563 20.8 13.3 21.2562 12.7375 21.2562H9.62501C9.21251 19.75 7.83751 18.6437 6.20001 18.6437C4.56251 18.6437 3.18751 19.75 2.77501 21.2562H0.937509C0.418759 21.2562 9.05796e-06 21.675 9.05796e-06 22.1937C9.05796e-06 22.7125 0.418759 23.1312 0.937509 23.1312H2.78126C3.19376 24.6375 4.56876 25.7437 6.20626 25.7437C7.84376 25.7437 9.21876 24.6375 9.63126 23.1312H12.7375C14.3375 23.1312 15.6313 21.8312 15.6313 20.2375V18.1062C15.6313 15.8937 13.825 14.0812 11.6 14.0812ZM6.20626 23.8812C5.28126 23.8812 4.53126 23.1312 4.53126 22.2062C4.53126 21.2812 5.28126 20.5312 6.20626 20.5312C7.13126 20.5312 7.88126 21.2812 7.88126 22.2062C7.88126 23.1312 7.12501 23.8812 6.20626 23.8812ZM9.05796e-06 15.65C9.05796e-06 15.1312 0.418759 14.7125 0.937509 14.7125H4.70626C5.22501 14.7125 5.64376 15.1312 5.64376 15.65C5.64376 16.1687 5.22501 16.5875 4.70626 16.5875H0.937509C0.418759 16.5875 9.05796e-06 16.1687 9.05796e-06 15.65ZM31.0625 21.2687H29.2188C28.8063 19.7625 27.4313 18.6562 25.7938 18.6562C24.1563 18.6562 22.7813 19.7625 22.3688 21.2687H19.2625C18.7 21.2687 18.2438 20.8125 18.2438 20.25V18.1187C18.2438 16.9312 19.2125 15.9625 20.4 15.9625C21.4 15.9625 22.3375 15.4375 22.8625 14.5875L25.2375 11.2312C25.25 11.2125 25.2625 11.1937 25.275 11.175C25.6938 10.475 26.4625 10.0437 27.275 10.0437H31.0625C31.5813 10.0437 32 9.62499 32 9.10624C32 8.58749 31.5813 8.16874 31.0625 8.16874H27.275C25.8188 8.16874 24.45 8.93749 23.6875 10.175L21.3125 13.5312C21.3 13.55 21.2875 13.5687 21.275 13.5937C21.0938 13.9 20.7563 14.0937 20.4 14.0937C18.1813 14.0937 16.3688 15.9 16.3688 18.125V20.2562C16.3688 21.8562 17.6688 23.15 19.2625 23.15H22.375C22.7875 24.6562 24.1625 25.7625 25.8 25.7625C27.4375 25.7625 28.8125 24.6562 29.225 23.15H31.0625C31.5813 23.15 32 22.7312 32 22.2125C32 21.6937 31.5813 21.2687 31.0625 21.2687ZM25.7938 23.8812C24.8688 23.8812 24.1188 23.1312 24.1188 22.2062C24.1188 21.2812 24.8688 20.5312 25.7938 20.5312C26.7188 20.5312 27.4688 21.2812 27.4688 22.2062C27.4688 23.1312 26.7188 23.8812 25.7938 23.8812ZM32 15.65C32 16.1687 31.5813 16.5875 31.0625 16.5875H27.2938C26.775 16.5875 26.3563 16.1687 26.3563 15.65C26.3563 15.1312 26.775 14.7125 27.2938 14.7125H31.0625C31.5813 14.7125 32 15.1375 32 15.65ZM18.5625 12.4562C18.1938 12.0875 18.1938 11.4937 18.5625 11.1312L20.3688 9.32499C20.7375 8.95624 21.3313 8.95624 21.6938 9.32499C22.0625 9.69374 22.0625 10.2875 21.6938 10.65L19.8875 12.4562C19.7063 12.6375 19.4625 12.7312 19.225 12.7312C18.9875 12.7312 18.7438 12.6437 18.5625 12.4562ZM16 11.2125C15.4813 11.2125 15.0625 10.7937 15.0625 10.275V7.18124C15.0625 6.66249 15.4813 6.24374 16 6.24374C16.5188 6.24374 16.9375 6.66249 16.9375 7.18124V10.275C16.9375 10.7937 16.5188 11.2125 16 11.2125ZM10.3 10.65C9.93126 10.2812 9.93126 9.68749 10.3 9.32499C10.6688 8.95624 11.2625 8.95624 11.625 9.32499L13.4313 11.1312C13.8 11.5 13.8 12.0937 13.4313 12.4562C13.25 12.6375 13.0063 12.7312 12.7688 12.7312C12.5313 12.7312 12.2875 12.6375 12.1063 12.4562L10.3 10.65Z" fill="black" fill-opacity="0.75"/>
</g>
<defs>
<clipPath id="clip0_196_8">
<rect width="32" height="32" fill="white"/>
</clipPath>
</defs>
</svg>
