<svg width="32" height="26" viewBox="0 0 32 26" fill="none" xmlns="http://www.w3.org/2000/svg">
<path d="M29.1875 0.675011H2.8125C1.2625 0.675011 0 1.93751 0 3.48751V22.5125C0 24.0625 1.2625 25.325 2.8125 25.325H29.1875C30.7375 25.325 32 24.0625 32 22.5125V3.48751C32 1.93751 30.7375 0.675011 29.1875 0.675011ZM30.125 22.5125C30.125 23.0313 29.7062 23.45 29.1875 23.45H2.8125C2.29375 23.45 1.875 23.0313 1.875 22.5125V3.48751C1.875 2.96876 2.29375 2.55001 2.8125 2.55001H29.1875C29.7062 2.55001 30.125 2.96876 30.125 3.48751V22.5125ZM12.7 11.9C13.2125 11.3063 13.5188 10.5375 13.5188 9.69376C13.5188 7.81876 11.9937 6.29376 10.1187 6.29376C8.24375 6.29376 6.71875 7.81876 6.71875 9.69376C6.71875 10.5375 7.025 11.3063 7.5375 11.9C5.9625 12.8 4.9 14.5 4.9 16.4375V17.5375C4.9 18.7313 5.86875 19.7 7.0625 19.7H13.1875C14.3813 19.7 15.35 18.7313 15.35 17.5375V16.4375C15.3438 14.5 14.2812 12.8 12.7 11.9ZM8.6 9.69376C8.6 8.85626 9.28125 8.16876 10.125 8.16876C10.9688 8.16876 11.65 8.85001 11.65 9.69376C11.65 10.5313 10.9688 11.2188 10.125 11.2188C9.28125 11.2188 8.6 10.5313 8.6 9.69376ZM13.4688 17.5438C13.4688 17.7 13.3375 17.8313 13.1812 17.8313H7.05625C6.9 17.8313 6.76875 17.7 6.76875 17.5438V16.4375C6.76875 14.5938 8.26875 13.0875 10.1187 13.0875C11.9688 13.0875 13.4688 14.5875 13.4688 16.4375V17.5438ZM27.1 9.84376C27.1 10.3625 26.6812 10.7813 26.1625 10.7813H17.8687C17.35 10.7813 16.9312 10.3625 16.9312 9.84376C16.9312 9.32501 17.35 8.90626 17.8687 8.90626H26.1688C26.6813 8.90626 27.1 9.32501 27.1 9.84376ZM27.1 13C27.1 13.5188 26.6812 13.9375 26.1625 13.9375H17.8687C17.35 13.9375 16.9312 13.5188 16.9312 13C16.9312 12.4813 17.35 12.0625 17.8687 12.0625H26.1688C26.6813 12.0625 27.1 12.4813 27.1 13ZM27.1 16.1563C27.1 16.675 26.6812 17.0938 26.1625 17.0938H22.0125C21.4938 17.0938 21.075 16.675 21.075 16.1563C21.075 15.6375 21.4938 15.2188 22.0125 15.2188H26.1625C26.6812 15.2188 27.1 15.6375 27.1 16.1563Z" fill="white"/>
<path d="M29.1875 0.675011H2.8125C1.2625 0.675011 0 1.93751 0 3.48751V22.5125C0 24.0625 1.2625 25.325 2.8125 25.325H29.1875C30.7375 25.325 32 24.0625 32 22.5125V3.48751C32 1.93751 30.7375 0.675011 29.1875 0.675011ZM30.125 22.5125C30.125 23.0313 29.7062 23.45 29.1875 23.45H2.8125C2.29375 23.45 1.875 23.0313 1.875 22.5125V3.48751C1.875 2.96876 2.29375 2.55001 2.8125 2.55001H29.1875C29.7062 2.55001 30.125 2.96876 30.125 3.48751V22.5125ZM12.7 11.9C13.2125 11.3063 13.5188 10.5375 13.5188 9.69376C13.5188 7.81876 11.9937 6.29376 10.1187 6.29376C8.24375 6.29376 6.71875 7.81876 6.71875 9.69376C6.71875 10.5375 7.025 11.3063 7.5375 11.9C5.9625 12.8 4.9 14.5 4.9 16.4375V17.5375C4.9 18.7313 5.86875 19.7 7.0625 19.7H13.1875C14.3813 19.7 15.35 18.7313 15.35 17.5375V16.4375C15.3438 14.5 14.2812 12.8 12.7 11.9ZM8.6 9.69376C8.6 8.85626 9.28125 8.16876 10.125 8.16876C10.9688 8.16876 11.65 8.85001 11.65 9.69376C11.65 10.5313 10.9688 11.2188 10.125 11.2188C9.28125 11.2188 8.6 10.5313 8.6 9.69376ZM13.4688 17.5438C13.4688 17.7 13.3375 17.8313 13.1812 17.8313H7.05625C6.9 17.8313 6.76875 17.7 6.76875 17.5438V16.4375C6.76875 14.5938 8.26875 13.0875 10.1187 13.0875C11.9688 13.0875 13.4688 14.5875 13.4688 16.4375V17.5438ZM27.1 9.84376C27.1 10.3625 26.6812 10.7813 26.1625 10.7813H17.8687C17.35 10.7813 16.9312 10.3625 16.9312 9.84376C16.9312 9.32501 17.35 8.90626 17.8687 8.90626H26.1688C26.6813 8.90626 27.1 9.32501 27.1 9.84376ZM27.1 13C27.1 13.5188 26.6812 13.9375 26.1625 13.9375H17.8687C17.35 13.9375 16.9312 13.5188 16.9312 13C16.9312 12.4813 17.35 12.0625 17.8687 12.0625H26.1688C26.6813 12.0625 27.1 12.4813 27.1 13ZM27.1 16.1563C27.1 16.675 26.6812 17.0938 26.1625 17.0938H22.0125C21.4938 17.0938 21.075 16.675 21.075 16.1563C21.075 15.6375 21.4938 15.2188 22.0125 15.2188H26.1625C26.6812 15.2188 27.1 15.6375 27.1 16.1563Z" fill="black" fill-opacity="0.75"/>
</svg>
