<svg width="20" height="20" viewBox="0 0 20 20" fill="none" xmlns="http://www.w3.org/2000/svg">
<path d="M0 3.8C0 3.35817 0.358172 3 0.8 3H19.2C19.6418 3 20 3.35817 20 3.8C20 4.24183 19.6418 4.6 19.2 4.6H0.799999C0.358172 4.6 0 4.24183 0 3.8Z" fill="black"/>
<path d="M0 10C0 9.55817 0.358172 9.2 0.8 9.2H19.2C19.6418 9.2 20 9.55817 20 10C20 10.4418 19.6418 10.8 19.2 10.8H0.799999C0.358172 10.8 0 10.4418 0 10Z" fill="black"/>
<path d="M0 16.2C0 15.7582 0.358172 15.4 0.8 15.4H19.2C19.6418 15.4 20 15.7582 20 16.2C20 16.6418 19.6418 17 19.2 17H0.799999C0.358172 17 0 16.6418 0 16.2Z" fill="black"/>
</svg>
